<svg width="1024" height="1024" viewBox="0 0 1024 1024" fill="none" xmlns="http://www.w3.org/2000/svg" role="img" aria-label="AnyBridge app icon">
  <defs>
    <linearGradient id="bg" x1="180" y1="104" x2="850" y2="912" gradientUnits="userSpaceOnUse">
      <stop stop-color="#135A97"/>
      <stop offset=".55" stop-color="#2B9FD7"/>
      <stop offset="1" stop-color="#52D4BD"/>
    </linearGradient>
    <radialGradient id="shine" cx="0" cy="0" r="1" gradientUnits="userSpaceOnUse" gradientTransform="translate(315 198) rotate(51) scale(740 620)">
      <stop stop-color="#FFFFFF" stop-opacity=".26"/>
      <stop offset=".52" stop-color="#FFFFFF" stop-opacity=".06"/>
      <stop offset="1" stop-color="#FFFFFF" stop-opacity="0"/>
    </radialGradient>
    <filter id="markShadow" x="120" y="120" width="784" height="784" color-interpolation-filters="sRGB">
      <feDropShadow dx="0" dy="38" stdDeviation="34" flood-color="#07395D" flood-opacity=".34"/>
    </filter>
    <path id="sharePath" d="M1023.976411 534.211283c-0.899979-65.0985-54.398747-117.997282-119.497248-118.197277-41.499044-0.199995-78.198199 20.799521-99.797701 52.698786-4.499896 6.699846-13.299694 9.09979-20.499527 5.399876L398.590818 280.017139c-6.999839-3.499919-10.39976-11.69973-7.999816-19.199557 6.099859-19.199558 9.399783-39.599088 9.399783-60.7986C399.990785 88.721546 308.092902-1.676371 196.795466 0.023589 87.797977 1.72355 0 90.621502 0 200.018982c0 92.597867 62.898551 170.396075 148.196586 193.195549 6.999839 1.899956 11.799728 8.199811 11.799728 15.399646v253.994148c0 7.199834-4.799889 13.399691-11.599733 15.399646C81.198129 697.007533 31.999263 758.806109 31.999263 832.004423c0 88.597959 71.998341 160.296307 160.5963 159.996314 88.09797-0.299993 159.396328-71.798346 159.396328-159.996314v-1.399968c0-6.099859 3.399922-11.69973 8.799797-14.399668l425.990187-214.495059c6.999839-3.499919 15.499643-1.499965 20.099537 4.79989 21.799498 29.999309 57.198682 49.598857 97.197761 49.598857 66.798461-0.099998 120.897215-54.798738 119.897238-121.897192z m-282.59349 18.599572l-393.990924 198.395429c-7.299832 3.699915-16.299625 1.199972-20.699523-5.699868-20.799521-32.399254-52.998779-56.698694-90.897906-67.498445-6.899841-1.999954-11.799728-8.199811-11.799728-15.399646V412.314091c0-7.699823 5.499873-14.299671 12.9997-15.699638 42.299026-7.899818 79.898159-29.09933 108.297505-59.098638 4.799889-5.099883 12.499712-6.399853 18.799567-3.199927l377.291309 189.995623c11.69973 5.899864 11.69973 22.599479 0 28.499344z"/>
  </defs>
  <rect x="48" y="48" width="928" height="928" rx="220" fill="url(#bg)"/>
  <rect x="48" y="48" width="928" height="928" rx="220" fill="url(#shine)"/>
  <path d="M110 337C154 162 273 84 485 78C273 121 156 209 110 337Z" fill="#FFFFFF" fill-opacity=".16"/>
  <use href="#sharePath" transform="translate(184 184) scale(.64)" fill="#FFFFFF" filter="url(#markShadow)"/>
</svg>
